<svg width="49" height="48" viewBox="0 0 49 48" fill="none" xmlns="http://www.w3.org/2000/svg">
<path d="M24.0785 0H0.806705C0.361944 0 0 0.360787 0 0.804128V47.1928C0 47.6362 0.361944 47.9969 0.806705 47.9969H24.0754C37.3722 47.9969 48.1539 37.2528 48.1539 23.9954C48.1539 10.7441 37.3753 0 24.0785 0ZM26.9341 35.6201L12.4656 12.2301H24.0754C30.5873 12.2301 35.8815 17.5104 35.8815 23.9985C35.8815 29.8567 32.5596 34.7242 26.9311 35.6201H26.9341Z" fill="black"/>
<path d="M20.4529 27.0929C14.5544 27.0929 0 27.0501 0 22.1336C0 17.2171 6.5702 13.2301 12.4656 13.2301" fill="url(#paint0_linear_0_142)"/>
<defs>
<linearGradient id="paint0_linear_0_142" x1="10.2264" y1="23.3963" x2="10.2264" y2="0.0643946" gradientUnits="userSpaceOnUse">
<stop offset="0.1"/>
<stop offset="0.927885" stop-color="#BDBDBD"/>
</linearGradient>
</defs>
</svg>
