<svg width="46" height="19" viewBox="0 0 46 19" fill="none" xmlns="http://www.w3.org/2000/svg">
<path d="M2.74933 17.9261H0V0.888355H2.74933V17.9249V17.9261ZM1.38653 17.9261V15.6554H5.71102C7.07757 15.6554 8.21427 15.4127 9.12239 14.9261C10.0305 14.4394 10.7113 13.7319 11.166 12.8023C11.6194 11.8727 11.8467 10.7331 11.8467 9.38477C11.8467 8.03646 11.6231 6.91995 11.1785 5.99033C10.7325 5.06071 10.0667 4.35683 9.1786 3.87867C8.29172 3.40051 7.18874 3.16143 5.87341 3.16143H1.2866V0.888355H6.03579C7.8108 0.888355 9.33724 1.22574 10.6163 1.9005C11.8955 2.57526 12.8748 3.55221 13.5531 4.83013C14.2326 6.10927 14.5711 7.62627 14.5711 9.38356C14.5711 11.1409 14.2276 12.6821 13.5406 13.96C12.8535 15.2392 11.858 16.2186 10.5539 16.9018C9.2498 17.5839 7.68964 17.9249 5.87341 17.9249H1.38653V17.9261Z" fill="black"/>
<path d="M18.589 15.1846C17.6272 14.636 16.8827 13.863 16.358 12.8666C15.8334 11.8702 15.5711 10.721 15.5711 9.41876C15.5711 8.11656 15.8334 6.94423 16.358 5.94786C16.8827 4.95149 17.6272 4.17964 18.589 3.62988C19.5508 3.08133 20.665 2.80585 21.9317 2.80585C23.1983 2.80585 24.2975 3.08012 25.2556 3.62988C26.2137 4.17843 26.9507 4.95149 27.4678 5.94786C27.9849 6.94423 28.2423 8.10079 28.2423 9.41876C28.2423 10.7367 27.9837 11.8702 27.4678 12.8666C26.9507 13.863 26.2137 14.636 25.2556 15.1846C24.2975 15.7331 23.1895 16.0086 21.9317 16.0086C20.6738 16.0086 19.5508 15.7343 18.589 15.1846ZM23.944 13.3083C24.4861 12.9042 24.8896 12.363 25.1569 11.6846C25.423 11.0061 25.5566 10.2476 25.5566 9.40784C25.5566 8.56802 25.423 7.8071 25.1569 7.12505C24.8896 6.44301 24.4861 5.89932 23.944 5.49519C23.4019 5.09106 22.7311 4.8896 21.9317 4.8896C21.1322 4.8896 20.4564 5.09106 19.9068 5.49519C19.3572 5.89932 18.945 6.4418 18.6689 7.12505C18.3929 7.80831 18.2567 8.56802 18.2567 9.40784C18.2567 10.2476 18.3941 11.0061 18.6689 11.6846C18.9437 12.363 19.356 12.9042 19.9068 13.3083C20.4564 13.7125 21.1322 13.9139 21.9317 13.9139C22.7311 13.9139 23.4019 13.7125 23.944 13.3083Z" fill="black"/>
<path d="M44.4891 13.4018C43.7896 14.727 42.8253 15.7428 41.5961 16.4491C40.367 17.1555 38.9655 17.5086 37.3903 17.5086C35.8152 17.5086 34.4137 17.1555 33.1845 16.4491C31.9554 15.7428 30.991 14.727 30.2915 13.4018C29.592 12.0765 29.2423 10.5268 29.2423 8.7537C29.2423 6.98063 29.592 5.41266 30.2915 4.09469C30.991 2.77672 31.9554 1.76458 33.1845 1.05947C34.4137 0.353158 35.8152 0 37.3903 0C38.9655 0 40.367 0.353158 41.5961 1.05947C42.8253 1.76579 43.7896 2.77672 44.4891 4.09469C45.1886 5.41266 45.5384 6.96607 45.5384 8.7537C45.5384 10.5413 45.1886 12.0753 44.4891 13.4018ZM42.127 5.28887C41.6598 4.3277 41.019 3.60075 40.2021 3.10682C39.3852 2.61288 38.4483 2.36531 37.3903 2.36531C36.3323 2.36531 35.4055 2.61288 34.5848 3.10682C33.7641 3.60075 33.1208 4.32891 32.6536 5.28887C32.1865 6.25004 31.9541 7.40539 31.9541 8.7537C31.9541 10.102 32.1877 11.2586 32.6536 12.2185C33.1196 13.1797 33.7641 13.9067 34.5848 14.4006C35.4055 14.8945 36.3411 15.1421 37.3903 15.1421C38.4396 15.1421 39.3852 14.8945 40.2021 14.4006C41.019 13.9067 41.6598 13.1785 42.127 12.2185C42.5929 11.2574 42.8265 10.1032 42.8265 8.7537C42.8265 7.40418 42.5929 6.25004 42.127 5.28887ZM39.1653 11.7428L41.0528 14.0608L41.9522 15.1081L44.9638 18.8145H42.152L40.1397 16.3436L39.4401 15.437L36.4535 11.7428H39.1653Z" fill="black"/>
</svg>
