<svg width="80" height="22" viewBox="0 0 80 22" fill="none" xmlns="http://www.w3.org/2000/svg">
<g clip-path="url(#clip0_1455_600)">
<path d="M11.2351 0H0.376412C0.168884 0 0 0.165371 0 0.368582V21.6314C0 21.8346 0.168884 22 0.376412 22H11.2337C17.438 22 22.4687 17.0753 22.4687 10.9986C22.4687 4.9247 17.4394 0 11.2351 0ZM12.5676 16.3269L5.81647 5.60583H11.2337C14.2721 5.60583 16.7424 8.0261 16.7424 11C16.7424 13.6852 15.1924 15.9163 12.5661 16.3269H12.5676Z" fill="white"/>
<path d="M9.5434 11.96C6.79116 11.96 0 11.9404 0 9.68683C0 7.4333 3.06568 5.60578 5.81647 5.60578" fill="url(#paint0_linear_1455_600)"/>
<path d="M30.1284 20.0829H26.9883V0.409182H30.1284V20.0815V20.0829ZM28.5719 20.0829V17.461H33.511C35.0718 17.461 36.37 17.1807 37.4072 16.6188C38.4444 16.0568 39.2219 15.2398 39.7412 14.1663C40.2591 13.0929 40.5187 11.7771 40.5187 10.2201C40.5187 8.66323 40.2634 7.37394 39.7555 6.30052C39.2461 5.22706 38.4857 4.41428 37.4714 3.86214C36.4585 3.31 35.1987 3.03394 33.6965 3.03394H28.4578V0.409182H33.8819C35.9092 0.409182 37.6526 0.79876 39.1135 1.57792C40.5744 2.35708 41.6929 3.48518 42.4675 4.96082C43.2437 6.43784 43.6303 8.18955 43.6303 10.2187C43.6303 12.2479 43.238 14.0276 42.4533 15.5033C41.6686 16.9803 40.5316 18.1112 39.0421 18.9002C37.5527 19.6878 35.7708 20.0815 33.6965 20.0815H28.5719V20.0829Z" fill="white"/>
<path d="M48.7125 19.4299C47.6139 18.7965 46.7636 17.9038 46.1644 16.7533C45.5652 15.6028 45.2656 14.2757 45.2656 12.772C45.2656 11.2684 45.5652 9.91467 46.1644 8.76411C46.7636 7.6136 47.6139 6.72233 48.7125 6.08754C49.8111 5.45412 51.0836 5.13599 52.5301 5.13599C53.9767 5.13599 55.2325 5.4527 56.3264 6.08754C57.4208 6.72095 58.2627 7.6136 58.8529 8.76411C59.4436 9.91467 59.7376 11.2502 59.7376 12.772C59.7376 14.2939 59.4422 15.6028 58.8529 16.7533C58.2627 17.9038 57.4208 18.7965 56.3264 19.4299C55.2325 20.0633 53.9669 20.3814 52.5301 20.3814C51.0934 20.3814 49.8111 20.0647 48.7125 19.4299ZM54.8287 17.2634C55.4478 16.7967 55.9087 16.1717 56.2139 15.3884C56.5176 14.605 56.6701 13.7291 56.6701 12.7594C56.6701 11.7897 56.5176 10.911 56.2139 10.1234C55.9087 9.33588 55.4478 8.70806 54.8287 8.24143C54.2092 7.77475 53.4432 7.54215 52.5301 7.54215C51.6171 7.54215 50.8455 7.77475 50.2176 8.24143C49.5897 8.70806 49.119 9.33446 48.8036 10.1234C48.4883 10.9124 48.3329 11.7897 48.3329 12.7594C48.3329 13.7291 48.4897 14.605 48.8036 15.3884C49.1176 16.1717 49.5883 16.7967 50.2176 17.2634C50.8455 17.73 51.6171 17.9627 52.5301 17.9627C53.4432 17.9627 54.2092 17.73 54.8287 17.2634Z" fill="white"/>
<path d="M78.7997 15.6126C78.0006 17.1429 76.8997 18.3158 75.4955 19.1314C74.0918 19.947 72.4909 20.3548 70.6923 20.3548C68.8932 20.3548 67.2923 19.947 65.8885 19.1314C64.4848 18.3158 63.3834 17.1429 62.5844 15.6126C61.7853 14.0823 61.3857 12.2927 61.3857 10.2454C61.3857 8.19798 61.7853 6.38742 62.5844 4.86553C63.3834 3.34365 64.4848 2.17491 65.8885 1.36072C67.2923 0.545123 68.8932 0.137327 70.6923 0.137327C72.4909 0.137327 74.0918 0.545123 75.4955 1.36072C76.8997 2.17631 78.0006 3.34365 78.7997 4.86553C79.5988 6.38742 79.9983 8.18116 79.9983 10.2454C79.9983 12.3096 79.5988 14.0809 78.7997 15.6126ZM76.102 6.24447C75.5685 5.13457 74.8364 4.29517 73.9034 3.72482C72.9704 3.15446 71.9006 2.86858 70.6923 2.86858C69.4839 2.86858 68.4253 3.15446 67.4876 3.72482C66.5504 4.29517 65.8155 5.13599 65.282 6.24447C64.7485 7.35433 64.4834 8.68844 64.4834 10.2454C64.4834 11.8023 64.7499 13.1378 65.282 14.2462C65.8141 15.3561 66.5504 16.1955 67.4876 16.7659C68.4253 17.3363 69.4937 17.6221 70.6923 17.6221C71.8904 17.6221 72.9704 17.3363 73.9034 16.7659C74.8364 16.1955 75.5685 15.3547 76.102 14.2462C76.6341 13.1364 76.9011 11.8037 76.9011 10.2454C76.9011 8.68702 76.6341 7.35433 76.102 6.24447ZM72.7192 13.6969L74.875 16.3735L75.902 17.5829L79.342 21.8626H76.1304L73.8323 19.0095L73.0332 17.9627L69.622 13.6969H72.7192Z" fill="white"/>
</g>
<defs>
<linearGradient id="paint0_linear_1455_600" x1="4.77167" y1="10.2656" x2="4.77167" y2="-0.428855" gradientUnits="userSpaceOnUse">
<stop offset="0.1" stop-color="#EBF4FF" stop-opacity="0.5"/>
<stop offset="0.83"/>
</linearGradient>
<clipPath id="clip0_1455_600">
<rect width="80" height="22" fill="white"/>
</clipPath>
</defs>
</svg>
