<svg width="172" height="48" viewBox="0 0 172 48" fill="none" xmlns="http://www.w3.org/2000/svg">
<path d="M24.0785 0H0.806705C0.361944 0 0 0.360787 0 0.804128V47.1928C0 47.6362 0.361944 47.9969 0.806705 47.9969H24.0754C37.3722 47.9969 48.1539 37.2528 48.1539 23.9954C48.1539 10.7441 37.3753 0 24.0785 0ZM26.9341 35.6201L12.4656 12.2301H24.0754C30.5873 12.2301 35.8815 17.5104 35.8815 23.9985C35.8815 29.8567 32.5596 34.7242 26.9311 35.6201H26.9341Z" fill="black"/>
<path d="M20.4529 27.0929C14.5544 27.0929 0 27.0501 0 22.1336C0 17.2171 6.5702 13.2301 12.4656 13.2301" fill="url(#paint0_linear_0_141)"/>
<path d="M62.7512 44.117H56V1.19244H62.7512V44.1139V44.117ZM59.4047 44.117V38.3963H70.0238C73.3794 38.3963 76.1707 37.7848 78.4006 36.5588C80.6306 35.3327 82.3023 33.5502 83.4188 31.2081C84.5322 28.8661 85.0905 25.995 85.0905 22.5981C85.0905 19.2012 84.5414 16.3883 83.4495 14.0463C82.3544 11.7042 80.7195 9.93083 78.5387 8.72617C76.3609 7.52151 73.6524 6.91918 70.4225 6.91918H59.1593V1.19244H70.8213C75.18 1.19244 78.9282 2.04243 82.0692 3.74242C85.2101 5.4424 87.6149 7.9037 89.2804 11.1233C90.9491 14.3459 91.7803 18.1678 91.7803 22.5951C91.7803 27.0224 90.9368 30.9054 89.2498 34.125C87.5627 37.3476 85.1181 39.815 81.9158 41.5364C78.7135 43.2547 74.8824 44.1139 70.4225 44.1139H59.4047V44.117Z" fill="black"/>
<path d="M102.706 42.6921C100.344 41.3101 98.5161 39.3625 97.2278 36.8523C95.9396 34.342 95.2954 31.4466 95.2954 28.1659C95.2954 24.8851 95.9396 21.9316 97.2278 19.4214C98.5161 16.9111 100.344 14.9665 102.706 13.5815C105.068 12.1995 107.804 11.5054 110.914 11.5054C114.025 11.5054 116.724 12.1964 119.076 13.5815C121.429 14.9635 123.239 16.9111 124.509 19.4214C125.778 21.9316 126.41 24.8454 126.41 28.1659C126.41 31.4863 125.775 34.342 124.509 36.8523C123.239 39.3625 121.429 41.3101 119.076 42.6921C116.724 44.0741 114.003 44.7682 110.914 44.7682C107.825 44.7682 105.068 44.0772 102.706 42.6921ZM115.856 37.9652C117.187 36.9471 118.178 35.5834 118.834 33.8742C119.487 32.1651 119.816 30.2541 119.816 28.1383C119.816 26.0225 119.487 24.1055 118.834 22.3871C118.178 20.6688 117.187 19.299 115.856 18.2809C114.524 17.2627 112.877 16.7552 110.914 16.7552C108.951 16.7552 107.292 17.2627 105.942 18.2809C104.592 19.299 103.58 20.6658 102.902 22.3871C102.225 24.1085 101.89 26.0225 101.89 28.1383C101.89 30.2541 102.228 32.1651 102.902 33.8742C103.577 35.5834 104.589 36.9471 105.942 37.9652C107.292 38.9834 108.951 39.4909 110.914 39.4909C112.877 39.4909 114.524 38.9834 115.856 37.9652Z" fill="black"/>
<path d="M167.396 34.3635C165.678 37.7023 163.31 40.2614 160.292 42.0409C157.274 43.8204 153.832 44.7101 149.964 44.7101C146.096 44.7101 142.655 43.8204 139.637 42.0409C136.618 40.2614 134.25 37.7023 132.533 34.3635C130.815 31.0247 129.956 27.1202 129.956 22.6532C129.956 18.1861 130.815 14.2358 132.533 10.9153C134.25 7.59488 136.618 5.04491 139.637 3.26849C142.655 1.48901 146.096 0.599274 149.964 0.599274C153.832 0.599274 157.274 1.48901 160.292 3.26849C163.31 5.04796 165.678 7.59488 167.396 10.9153C169.114 14.2358 169.972 18.1494 169.972 22.6532C169.972 27.1569 169.114 31.0216 167.396 34.3635ZM161.596 13.9239C160.448 11.5024 158.875 9.67093 156.869 8.42652C154.863 7.18211 152.562 6.55838 149.964 6.55838C147.366 6.55838 145.09 7.18211 143.075 8.42652C141.06 9.67093 139.48 11.5054 138.333 13.9239C137.186 16.3455 136.615 19.2563 136.615 22.6532C136.615 26.0501 137.189 28.9639 138.333 31.3824C139.477 33.8039 141.06 35.6354 143.075 36.8798C145.09 38.1242 147.388 38.7479 149.964 38.7479C152.541 38.7479 154.863 38.1242 156.869 36.8798C158.875 35.6354 160.448 33.8009 161.596 31.3824C162.74 28.9608 163.313 26.0531 163.313 22.6532C163.313 19.2532 162.74 16.3455 161.596 13.9239ZM154.323 30.1838L158.958 36.0237L161.166 38.6623L168.561 48H161.657L156.715 41.7749L154.998 39.4909L147.664 30.1838H154.323Z" fill="black"/>
<defs>
<linearGradient id="paint0_linear_0_141" x1="10.2264" y1="23.3963" x2="10.2264" y2="0.0643946" gradientUnits="userSpaceOnUse">
<stop offset="0.1"/>
<stop offset="0.927885" stop-color="#BDBDBD"/>
</linearGradient>
</defs>
</svg>
